<svg xmlns="http://www.w3.org/2000/svg" viewBox="0 0 200 220" width="200" height="220">
  <g stroke="#C8923A" stroke-width="1.4" stroke-linecap="round" stroke-linejoin="round" fill="none">
    
    <path d="M100 210 C 96 180, 104 150, 98 118 C 92 88, 106 58, 100 20"></path>
    
    <path d="M98 180 C 78 176, 64 166, 56 150 C 74 154, 88 164, 98 180 Z"></path>
    <path d="M100 148 C 80 142, 68 130, 62 114 C 80 118, 94 130, 100 148 Z"></path>
    <path d="M100 110 C 84 102, 74 88, 72 72 C 88 80, 98 94, 100 110 Z"></path>
    <path d="M100 70 C 88 62, 82 50, 82 36 C 94 46, 100 58, 100 70 Z"></path>
    
    <path d="M98 196 C 118 192, 132 182, 140 166 C 122 170, 108 180, 98 196 Z"></path>
    <path d="M100 164 C 120 158, 132 146, 138 130 C 120 134, 106 146, 100 164 Z"></path>
    <path d="M100 126 C 116 118, 126 104, 128 88 C 112 96, 102 110, 100 126 Z"></path>
    <path d="M100 88 C 112 80, 118 68, 118 54 C 106 64, 100 76, 100 88 Z"></path>
    
    <path d="M56 150 L 98 180" opacity="0.6"></path>
    <path d="M62 114 L 100 148" opacity="0.6"></path>
    <path d="M72 72 L 100 110" opacity="0.6"></path>
    <path d="M140 166 L 98 196" opacity="0.6"></path>
    <path d="M138 130 L 100 164" opacity="0.6"></path>
    <path d="M128 88 L 100 126" opacity="0.6"></path>
  </g>
</svg>