<svg xmlns="http://www.w3.org/2000/svg" viewBox="0 0 140 160" width="140" height="160">
  <g stroke="#3A2318" stroke-width="1.2" stroke-linecap="round" stroke-linejoin="round" fill="none">
    
    <path d="M70 150 C 68 120, 74 90, 70 60 C 68 40, 74 20, 70 10"></path>
    
    <path d="M70 70 C 50 64, 38 52, 34 40 C 52 44, 64 54, 70 70 Z"></path>
    <path d="M70 70 C 90 64, 102 52, 106 40 C 88 44, 76 54, 70 70 Z"></path>
    <path d="M70 100 C 52 96, 42 86, 40 74 C 56 78, 66 86, 70 100 Z"></path>
    <path d="M70 100 C 88 96, 98 86, 100 74 C 84 78, 74 86, 70 100 Z"></path>
    
    <circle cx="52" cy="118" r="6" stroke="#C8923A" stroke-width="1.3"></circle>
    <circle cx="70" cy="126" r="6.5" stroke="#C8923A" stroke-width="1.3"></circle>
    <circle cx="88" cy="118" r="6" stroke="#C8923A" stroke-width="1.3"></circle>
    
    <path d="M52 112 C 56 108, 62 106, 68 108" stroke="#3A2318"></path>
    <path d="M70 120 C 70 114, 70 110, 70 106" stroke="#3A2318"></path>
    <path d="M88 112 C 84 108, 78 106, 72 108" stroke="#3A2318"></path>
    
    <circle cx="52" cy="118" r="1.2" fill="#3A2318" stroke="none"></circle>
    <circle cx="70" cy="126" r="1.3" fill="#3A2318" stroke="none"></circle>
    <circle cx="88" cy="118" r="1.2" fill="#3A2318" stroke="none"></circle>
  </g>
</svg>